<svg xmlns="http://www.w3.org/2000/svg" width="138.13" height="35" viewBox="0 0 138.13 35"><rect class="svg__rect" x="0" y="0" width="78.72" height="35" fill="#3C9AD5"/><rect class="svg__rect" x="76.72" y="0" width="61.41" height="35" fill="#3BC4F3"/><path class="svg__text" d="M15.69 22L14.22 22L14.22 13.47L16.14 13.47L18.60 20.01L21.06 13.47L22.97 13.47L22.97 22L21.49 22L21.49 19.19L21.64 15.43L19.12 22L18.06 22L15.55 15.43L15.69 19.19L15.69 22ZM27.44 18.00L27.44 18.00L27.44 17.52Q27.44 16.28 27.88 15.32Q28.33 14.37 29.13 13.86Q29.94 13.35 30.98 13.35Q32.02 13.35 32.83 13.85Q33.64 14.35 34.07 15.29Q34.51 16.23 34.52 17.48L34.52 17.48L34.52 17.96Q34.52 19.21 34.09 20.16Q33.65 21.10 32.85 21.61Q32.04 22.12 30.99 22.12L30.99 22.12Q29.96 22.12 29.14 21.61Q28.33 21.10 27.89 20.17Q27.45 19.23 27.44 18.00ZM28.92 17.46L28.92 17.96Q28.92 19.36 29.47 20.13Q30.02 20.90 30.99 20.90L30.99 20.90Q31.98 20.90 32.51 20.15Q33.04 19.40 33.04 17.96L33.04 17.96L33.04 17.51Q33.04 16.09 32.50 15.34Q31.97 14.58 30.98 14.58L30.98 14.58Q30.02 14.58 29.48 15.33Q28.94 16.09 28.92 17.46L28.92 17.46ZM41.44 22L38.98 22L38.98 13.47L41.50 13.47Q42.64 13.47 43.51 13.97Q44.39 14.48 44.87 15.40Q45.35 16.33 45.35 17.52L45.35 17.52L45.35 17.95Q45.35 19.16 44.86 20.08Q44.38 21.00 43.49 21.50Q42.59 22 41.44 22L41.44 22ZM40.47 14.66L40.47 20.82L41.43 20.82Q42.60 20.82 43.22 20.09Q43.85 19.36 43.86 17.99L43.86 17.99L43.86 17.52Q43.86 16.13 43.26 15.40Q42.65 14.66 41.50 14.66L41.50 14.66L40.47 14.66ZM55.39 22L49.81 22L49.81 13.47L55.35 13.47L55.35 14.66L51.30 14.66L51.30 17.02L54.80 17.02L54.80 18.19L51.30 18.19L51.30 20.82L55.39 20.82L55.39 22ZM64.94 22L59.59 22L59.59 13.47L61.07 13.47L61.07 20.82L64.94 20.82L64.94 22Z" fill="#FFFFFF"/><path class="svg__text" d="M93.11 22L90.91 22L90.91 13.60L92.86 13.60L95.82 18.45L98.70 13.60L100.65 13.60L100.68 22L98.50 22L98.47 17.55L96.31 21.17L95.26 21.17L93.11 17.67L93.11 22ZM108.42 22L104.83 13.60L107.40 13.60L109.68 19.07L112.01 13.60L114.36 13.60L110.76 22L108.42 22ZM118.08 17.80L118.08 17.80Q118.08 16.54 118.68 15.54Q119.28 14.55 120.33 13.99Q121.38 13.43 122.70 13.43L122.70 13.43Q123.86 13.43 124.78 13.84Q125.70 14.25 126.32 15.02L126.32 15.02L124.80 16.39Q123.99 15.40 122.82 15.40L122.82 15.40Q122.14 15.40 121.61 15.70Q121.07 16 120.78 16.54Q120.48 17.09 120.48 17.80L120.48 17.80Q120.48 18.51 120.78 19.05Q121.07 19.60 121.61 19.90Q122.14 20.20 122.82 20.20L122.82 20.20Q123.99 20.20 124.80 19.22L124.80 19.22L126.32 20.58Q125.71 21.35 124.78 21.76Q123.86 22.17 122.70 22.17L122.70 22.17Q121.38 22.17 120.33 21.61Q119.28 21.05 118.68 20.05Q118.08 19.06 118.08 17.80Z" fill="#FFFFFF" x="89.72"/></svg>