<svg xmlns="http://www.w3.org/2000/svg" width="123.76" height="35" viewBox="0 0 123.76 35"><rect class="svg__rect" x="0" y="0" width="64.89" height="35" fill="#419B5A"/><rect class="svg__rect" x="62.89" y="0" width="60.870000000000005" height="35" fill="#8FC965"/><path class="svg__text" d="M14.08 19.16L14.08 19.16L14.08 13.47L15.56 13.47L15.56 19.18Q15.56 20.03 15.99 20.48Q16.43 20.93 17.27 20.93L17.27 20.93Q18.98 20.93 18.98 19.13L18.98 19.13L18.98 13.47L20.46 13.47L20.46 19.17Q20.46 20.53 19.59 21.32Q18.72 22.12 17.27 22.12L17.27 22.12Q15.81 22.12 14.94 21.33Q14.08 20.55 14.08 19.16ZM24.59 19.42L24.59 19.42L26.08 19.42Q26.08 20.15 26.56 20.55Q27.04 20.95 27.93 20.95L27.93 20.95Q28.71 20.95 29.10 20.63Q29.49 20.32 29.49 19.80L29.49 19.80Q29.49 19.24 29.09 18.94Q28.70 18.63 27.66 18.32Q26.63 18.01 26.02 17.63L26.02 17.63Q24.86 16.90 24.86 15.72L24.86 15.72Q24.86 14.69 25.70 14.02Q26.54 13.35 27.88 13.35L27.88 13.35Q28.77 13.35 29.47 13.68Q30.17 14.01 30.56 14.61Q30.96 15.22 30.96 15.96L30.96 15.96L29.49 15.96Q29.49 15.29 29.07 14.91Q28.65 14.54 27.87 14.54L27.87 14.54Q27.14 14.54 26.74 14.85Q26.34 15.16 26.34 15.71L26.34 15.71Q26.34 16.18 26.77 16.50Q27.21 16.81 28.20 17.10Q29.20 17.40 29.80 17.78Q30.41 18.16 30.69 18.65Q30.97 19.13 30.97 19.79L30.97 19.79Q30.97 20.86 30.15 21.49Q29.33 22.12 27.93 22.12L27.93 22.12Q27.01 22.12 26.23 21.77Q25.46 21.43 25.02 20.83Q24.59 20.22 24.59 19.42ZM40.84 22L35.26 22L35.26 13.47L40.80 13.47L40.80 14.66L36.74 14.66L36.74 17.02L40.24 17.02L40.24 18.19L36.74 18.19L36.74 20.82L40.84 20.82L40.84 22ZM44.60 19.42L44.60 19.42L46.08 19.42Q46.08 20.15 46.56 20.55Q47.04 20.95 47.94 20.95L47.94 20.95Q48.71 20.95 49.10 20.63Q49.49 20.32 49.49 19.80L49.49 19.80Q49.49 19.24 49.10 18.94Q48.70 18.63 47.67 18.32Q46.64 18.01 46.03 17.63L46.03 17.63Q44.86 16.90 44.86 15.72L44.86 15.72Q44.86 14.69 45.70 14.02Q46.54 13.35 47.89 13.35L47.89 13.35Q48.78 13.35 49.47 13.68Q50.17 14.01 50.57 14.61Q50.97 15.22 50.97 15.96L50.97 15.96L49.49 15.96Q49.49 15.29 49.07 14.91Q48.65 14.54 47.87 14.54L47.87 14.54Q47.15 14.54 46.75 14.85Q46.34 15.16 46.34 15.71L46.34 15.71Q46.34 16.18 46.78 16.50Q47.21 16.81 48.21 17.10Q49.20 17.40 49.81 17.78Q50.41 18.16 50.69 18.65Q50.97 19.13 50.97 19.79L50.97 19.79Q50.97 20.86 50.16 21.49Q49.34 22.12 47.94 22.12L47.94 22.12Q47.01 22.12 46.24 21.77Q45.46 21.43 45.03 20.83Q44.60 20.22 44.60 19.42Z" fill="#FFFFFF"/><path class="svg__text" d="M79.46 22L77.08 22L77.08 13.60L80.92 13.60Q82.06 13.60 82.90 13.98Q83.74 14.35 84.20 15.06Q84.65 15.76 84.65 16.71L84.65 16.71Q84.65 17.66 84.20 18.35Q83.74 19.05 82.90 19.42Q82.06 19.80 80.92 19.80L80.92 19.80L79.46 19.80L79.46 22ZM79.46 15.47L79.46 17.93L80.78 17.93Q81.51 17.93 81.88 17.61Q82.25 17.29 82.25 16.71L82.25 16.71Q82.25 16.12 81.88 15.80Q81.51 15.47 80.78 15.47L80.78 15.47L79.46 15.47ZM88.98 17.80L88.98 17.80Q88.98 16.55 89.58 15.55Q90.19 14.56 91.25 14.00Q92.31 13.43 93.64 13.43L93.64 13.43Q94.97 13.43 96.04 14.00Q97.10 14.56 97.71 15.55Q98.31 16.55 98.31 17.80L98.31 17.80Q98.31 19.05 97.71 20.04Q97.10 21.04 96.04 21.60Q94.98 22.17 93.64 22.17L93.64 22.17Q92.31 22.17 91.25 21.60Q90.19 21.04 89.58 20.04Q88.98 19.05 88.98 17.80ZM91.37 17.80L91.37 17.80Q91.37 18.51 91.68 19.05Q91.98 19.60 92.49 19.90Q93.01 20.20 93.64 20.20L93.64 20.20Q94.28 20.20 94.80 19.90Q95.31 19.60 95.61 19.05Q95.91 18.51 95.91 17.80L95.91 17.80Q95.91 17.09 95.61 16.54Q95.31 16 94.80 15.70Q94.28 15.40 93.64 15.40L93.64 15.40Q93.00 15.40 92.49 15.70Q91.98 16 91.68 16.54Q91.37 17.09 91.37 17.80ZM102.61 17.80L102.61 17.80Q102.61 16.55 103.22 15.55Q103.82 14.56 104.88 14.00Q105.95 13.43 107.28 13.43L107.28 13.43Q108.61 13.43 109.67 14.00Q110.73 14.56 111.34 15.55Q111.95 16.55 111.95 17.80L111.95 17.80Q111.95 19.05 111.34 20.04Q110.73 21.04 109.67 21.60Q108.61 22.17 107.28 22.17L107.28 22.17Q105.95 22.17 104.88 21.60Q103.82 21.04 103.22 20.04Q102.61 19.05 102.61 17.80ZM105.01 17.80L105.01 17.80Q105.01 18.51 105.31 19.05Q105.61 19.60 106.13 19.90Q106.64 20.20 107.28 20.20L107.28 20.20Q107.92 20.20 108.43 19.90Q108.95 19.60 109.25 19.05Q109.54 18.51 109.54 17.80L109.54 17.80Q109.54 17.09 109.25 16.54Q108.95 16 108.43 15.70Q107.92 15.40 107.28 15.40L107.28 15.40Q106.64 15.40 106.13 15.70Q105.61 16 105.31 16.54Q105.01 17.09 105.01 17.80Z" fill="#FFFFFF" x="75.89"/></svg>